<?xml version="1.0" encoding="UTF-8" standalone="no"?>
<!-- Generator: Adobe Illustrator 18.0.0, SVG Export Plug-In . SVG Version: 6.00 Build 0)  -->

<svg
   xmlns:dc="http://purl.org/dc/elements/1.1/"
   xmlns:cc="http://creativecommons.org/ns#"
   xmlns:rdf="http://www.w3.org/1999/02/22-rdf-syntax-ns#"
   xmlns:svg="http://www.w3.org/2000/svg"
   xmlns="http://www.w3.org/2000/svg"
   xmlns:sodipodi="http://sodipodi.sourceforge.net/DTD/sodipodi-0.dtd"
   xmlns:inkscape="http://www.inkscape.org/namespaces/inkscape"
   version="1.1"
   id="Capa_1"
   x="0px"
   y="0px"
   width="218.10001"
   height="218.10001"
   viewBox="0 0 218.1 218.1"
   xml:space="preserve"
   inkscape:version="0.91 r13725"
   sodipodi:docname="beer34.svg"><metadata
     id="metadata45"><rdf:RDF><cc:Work
         rdf:about=""><dc:format>image/svg+xml</dc:format><dc:type
           rdf:resource="http://purl.org/dc/dcmitype/StillImage" /><dc:title /></cc:Work></rdf:RDF></metadata><defs
     id="defs43" /><sodipodi:namedview
     pagecolor="#ffffff"
     bordercolor="#666666"
     borderopacity="1"
     objecttolerance="10"
     gridtolerance="10"
     guidetolerance="10"
     inkscape:pageopacity="0"
     inkscape:pageshadow="2"
     inkscape:window-width="1920"
     inkscape:window-height="1056"
     id="namedview41"
     showgrid="false"
     fit-margin-top="0"
     fit-margin-left="0"
     fit-margin-right="0"
     fit-margin-bottom="0"
     inkscape:zoom="0.89450014"
     inkscape:cx="-265.3523"
     inkscape:cy="163.37635"
     inkscape:window-x="0"
     inkscape:window-y="24"
     inkscape:window-maximized="1"
     inkscape:current-layer="g3" /><g
     id="g3"
     style="fill:#82b440;fill-opacity:1;stroke:#82b440;stroke-opacity:1"><path
       style="fill:#82b440;fill-opacity:1;stroke:#82b440;stroke-width:0.59020954;stroke-opacity:1"
       d="m 78.626498,120.53571 c -3.259727,0 -5.902095,2.64236 -5.902095,5.90209 l 0,46.32791 c 0,3.25973 2.642368,5.90209 5.902095,5.90209 3.259727,0 5.902095,-2.64236 5.902095,-5.90209 l 0,-46.32791 c 0,-3.25973 -2.642368,-5.90209 -5.902095,-5.90209 z"
       id="path5"
       inkscape:connector-curvature="0" /><path
       style="fill:#82b440;fill-opacity:1;stroke:#82b440;stroke-width:0.59020954;stroke-opacity:1"
       d="m 123.27998,120.53571 c -3.25973,0 -5.9021,2.64236 -5.9021,5.90209 l 0,46.32791 c 0,3.25973 2.64237,5.90209 5.9021,5.90209 3.25972,0 5.90209,-2.64236 5.90209,-5.90209 l 0,-46.32791 c 0,-3.25973 -2.64237,-5.90209 -5.90209,-5.90209 z"
       id="path7"
       inkscape:connector-curvature="0" /><path
       style="fill:#82b440;fill-opacity:1;stroke:#82b440;stroke-width:0.59020954;stroke-opacity:1"
       d="m 174.47652,76.256417 -6.83344,0 0,-6.717765 c 2.62289,-4.332728 4.135,-9.40912 4.135,-14.833146 0,-14.61831 -10.97494,-26.721146 -25.11754,-28.502989 C 144.01876,13.069765 132.3934,3.1489329 118.49515,3.1489329 c -8.0782,0 -15.6435,3.3541607 -21.031527,9.1588711 -2.76041,-0.858755 -5.651256,-1.303772 -8.546234,-1.303772 -10.746533,0 -20.516271,6.090962 -25.4156,15.348398 -1.528643,-0.250248 -3.079714,-0.375963 -4.644949,-0.375963 -15.841224,0 -28.728449,12.887815 -28.728449,28.729039 0,5.424026 1.512117,10.500418 4.135008,14.833146 l 0,108.535988 c 0,19.5265 15.88608,35.41258 35.412572,35.41258 l 62.555119,0 c 18.02854,0 32.94373,-13.5459 35.12691,-30.99309 l 7.11852,0 c 13.00527,0 23.58595,-10.58068 23.58595,-23.58654 l 0,-59.064039 c 6e-4,-13.005858 -10.58068,-23.587134 -23.58595,-23.587134 z M 58.85684,37.780658 c 2.071635,0 4.101366,0.373602 6.033122,1.110774 1.541627,0.588439 3.259137,0.504039 4.736431,-0.231953 1.476704,-0.735991 2.578625,-2.05688 3.037218,-3.641592 2.079899,-7.188752 8.764022,-12.209665 16.253778,-12.209665 2.722047,0 5.325461,0.630934 7.738828,1.875096 2.691945,1.386992 5.997123,0.512892 7.649703,-2.025009 3.14287,-4.824963 8.44708,-7.705186 14.18923,-7.705186 9.31114,0 16.89002,7.558814 16.92426,16.862287 -0.001,0.0484 -0.002,0.09738 -0.002,0.135158 0,1.642553 0.68464,3.21074 1.88926,4.328006 1.20461,1.116677 2.81825,1.681507 4.45785,1.557563 0.49164,-0.03718 0.91187,-0.05548 1.28488,-0.05548 9.33181,0 16.92426,7.592455 16.92426,16.924848 0,9.332393 -7.59245,16.924849 -16.92426,16.924849 l -50.112324,0 c -3.259727,0 -5.902095,2.642368 -5.902095,5.902095 l 0,21.651836 c 0,3.239665 -2.635283,5.874945 -5.874353,5.874945 -3.23966,0 -5.875536,-2.63528 -5.875536,-5.874945 l 0,-21.651836 c 0,-3.259727 -2.642368,-5.902095 -5.902095,-5.902095 l -10.526387,0 c -9.332393,0 -16.924259,-7.592456 -16.924259,-16.924849 0,-9.332393 7.591866,-16.924848 16.924259,-16.924848 z m 96.98264,140.293982 c 0,13.01766 -10.59072,23.60838 -23.60839,23.60838 l -62.55571,0 c -13.017661,0 -23.608381,-10.59072 -23.608381,-23.60838 l 0,-97.654885 c 3.854659,1.925264 8.19624,3.0142 12.789251,3.0142 l 4.624881,0 0,15.749741 c 0,9.748494 7.931236,17.679134 17.679727,17.679134 9.747898,0 17.678544,-7.93123 17.678544,-17.679134 l 0,-15.749741 44.210228,0 c 4.59361,0 8.93519,-1.089527 12.78926,-3.0142 l 0,97.654885 z m 30.41939,-19.16705 c 0,6.49703 -5.28532,11.78235 -11.78176,11.78235 l -6.83344,0 0,-82.629332 6.83344,0 c 6.49644,0 11.78176,5.285916 11.78176,11.782943 l 0,59.064039 z"
       id="path9"
       inkscape:connector-curvature="0" /></g><g
     id="g15" /><g
     id="g17" /><g
     id="g19" /><g
     id="g21" /><g
     id="g23" /><g
     id="g25" /><g
     id="g27" /><g
     id="g29" /><g
     id="g31" /><g
     id="g33" /><g
     id="g35" /><g
     id="g37" /><g
     id="g39" /></svg>