<?xml version="1.0" encoding="UTF-8" standalone="no"?>
<!-- Generator: Adobe Illustrator 18.0.0, SVG Export Plug-In . SVG Version: 6.00 Build 0)  -->

<svg
   xmlns:dc="http://purl.org/dc/elements/1.1/"
   xmlns:cc="http://creativecommons.org/ns#"
   xmlns:rdf="http://www.w3.org/1999/02/22-rdf-syntax-ns#"
   xmlns:svg="http://www.w3.org/2000/svg"
   xmlns="http://www.w3.org/2000/svg"
   xmlns:sodipodi="http://sodipodi.sourceforge.net/DTD/sodipodi-0.dtd"
   xmlns:inkscape="http://www.inkscape.org/namespaces/inkscape"
   version="1.1"
   id="Capa_1"
   x="0px"
   y="0px"
   viewBox="0 0 393 393"
   style="enable-background:new 0 0 393 393;"
   xml:space="preserve"
   inkscape:version="0.91 r13725"
   sodipodi:docname="beer31.svg"><metadata
     id="metadata43"><rdf:RDF><cc:Work
         rdf:about=""><dc:format>image/svg+xml</dc:format><dc:type
           rdf:resource="http://purl.org/dc/dcmitype/StillImage" /></cc:Work></rdf:RDF></metadata><defs
     id="defs41" /><sodipodi:namedview
     pagecolor="#ffffff"
     bordercolor="#666666"
     borderopacity="1"
     objecttolerance="10"
     gridtolerance="10"
     guidetolerance="10"
     inkscape:pageopacity="0"
     inkscape:pageshadow="2"
     inkscape:window-width="1920"
     inkscape:window-height="1056"
     id="namedview39"
     showgrid="false"
     inkscape:zoom="0.60050891"
     inkscape:cx="196.5"
     inkscape:cy="196.5"
     inkscape:window-x="0"
     inkscape:window-y="24"
     inkscape:window-maximized="1"
     inkscape:current-layer="Capa_1" /><g
     id="g3"
     style="fill:#82b440;fill-opacity:1;stroke:#82b440;stroke-opacity:1"><path
       style="fill:#82b440;fill-opacity:1;stroke:#82b440;stroke-opacity:1"
       d="M277.306,375.225c-1.791-1.868-21.987-25.325,3.224-105.073   C320.959,142.27,306.239,28.64,300.43,7.366C299.242,3.017,295.291,0,290.783,0H102.217c-4.508,0-8.459,3.017-9.647,7.366   C86.761,28.64,72.041,142.27,112.469,270.152c25.211,79.748,5.015,103.204,3.224,105.072c-3.36,3.873-4.818,6.739-3.559,10.893   c1.278,4.216,5.464,6.883,9.87,6.883h148.992c4.406,0,8.592-2.667,9.87-6.883C282.125,381.963,280.667,379.577,277.306,375.225z    M282.683,20c1.748,9.992,3.852,27.418,4.69,50.219H105.627c0.838-22.8,2.942-40.227,4.69-50.219H282.683z M253.327,373H139.673   c6.607-17.71,10.245-50.74-8.134-108.876c-20.752-65.644-26.314-127.634-26.281-173.905h182.485   c0.033,46.271-5.529,108.261-26.281,173.905C243.082,322.26,246.719,355.29,253.327,373z"
       id="path5" /><path
       style="fill:#82b440;fill-opacity:1;stroke:#82b440;stroke-opacity:1"
       d="M268.771,196.5c0-5.523-4.477-10-10-10h-18.336c-1.175-14.727-4.933-28.427-10.876-39.333   C221.24,131.905,209.5,123.5,196.5,123.5c-13.001,0-24.741,8.405-33.058,23.667c-5.944,10.906-9.701,24.605-10.876,39.333h-18.336   c-5.523,0-10,4.477-10,10c0,5.523,4.477,10,10,10h18.336c1.175,14.728,4.933,28.427,10.876,39.333   c8.317,15.262,20.058,23.667,33.058,23.667c13,0,24.741-8.405,33.058-23.667c5.944-10.906,9.701-24.605,10.876-39.333h18.336   C264.294,206.5,268.771,202.023,268.771,196.5z M196.5,249.5c-11.487,0-24.334-22.666-24.334-53c0-30.334,12.847-53,24.334-53   c11.487,0,24.333,22.666,24.333,53C220.833,226.834,207.987,249.5,196.5,249.5z"
       id="path7" /></g><g
     id="g9" /><g
     id="g11" /><g
     id="g13" /><g
     id="g15" /><g
     id="g17" /><g
     id="g19" /><g
     id="g21" /><g
     id="g23" /><g
     id="g25" /><g
     id="g27" /><g
     id="g29" /><g
     id="g31" /><g
     id="g33" /><g
     id="g35" /><g
     id="g37" /></svg>